<svg width="1921" height="345" viewBox="0 0 1921 345" fill="none" xmlns="http://www.w3.org/2000/svg">
<path d="M0.5 231V32.0115C0.5 32.0115 41.6992 41.9116 68.6198 45.2224C103.624 49.5274 123.65 48.7102 158.936 48.1582C213.268 47.3083 243.436 41.1862 297.472 35.6812C331.575 32.2068 350.695 30.215 384.726 26.14C423.946 21.4436 445.729 17.2751 484.992 12.929C519 9.16474 538.105 7.25617 572.247 4.85565C599.415 2.94543 614.668 1.95002 641.897 1.18594C672.97 0.314029 690.428 0.229649 721.498 1.18594C756.533 2.26428 776.204 3.39812 811.049 7.05748C843.45 10.4602 861.512 13.4575 893.597 18.7817L893.711 18.8005C945.816 27.447 974.028 37.2547 1026.12 45.9564C1067.77 52.9124 1091.15 57.2484 1133.28 60.6352C1170.83 63.6542 1192.04 63.4564 1229.72 63.571C1271.58 63.6983 1295.09 63.111 1336.87 60.6352C1386.95 57.6679 1414.87 53.8131 1464.69 48.1582C1509.61 43.0604 1534.63 38.9192 1579.5 33.4794C1619.23 28.6639 1641.44 25.3637 1681.3 21.7363C1719.18 18.2888 1740.45 15.7039 1778.5 15.1308C1813.19 14.6084 1833.16 12.0698 1867.29 18.0666C1886.47 21.438 1920.5 33.4794 1920.5 33.4794V230.438L0.5 231Z" fill="#B6D985" stroke="#B6D985"/>
<path d="M0.5 288V89.0115C0.5 89.0115 41.6992 98.9116 68.6198 102.222C103.624 106.527 123.65 105.71 158.936 105.158C213.268 104.308 243.436 98.1862 297.472 92.6812C331.575 89.2068 350.695 87.215 384.726 83.14C423.946 78.4436 445.729 74.2751 484.992 69.929C519 66.1647 538.105 64.2562 572.247 61.8557C599.415 59.9454 614.668 58.95 641.897 58.1859C672.97 57.314 690.428 57.2296 721.498 58.1859C756.533 59.2643 776.204 60.3981 811.049 64.0575C843.45 67.4602 861.512 70.4575 893.597 75.7817L893.711 75.8005C945.816 84.447 974.028 94.2547 1026.12 102.956C1067.77 109.912 1091.15 114.248 1133.28 117.635C1170.83 120.654 1192.04 120.456 1229.72 120.571C1271.58 120.698 1295.09 120.111 1336.87 117.635C1386.95 114.668 1414.87 110.813 1464.69 105.158C1509.61 100.06 1534.63 95.9192 1579.5 90.4794C1619.23 85.6639 1641.44 82.3637 1681.3 78.7363C1719.18 75.2888 1740.45 72.7039 1778.5 72.1308C1813.19 71.6084 1833.16 69.0698 1867.29 75.0666C1886.47 78.438 1920.5 90.4794 1920.5 90.4794V287.438L0.5 288Z" fill="#129200" stroke="#129200"/>
<path d="M0.5 344V145.011C0.5 145.011 41.6992 154.912 68.6198 158.222C103.624 162.527 123.65 161.71 158.936 161.158C213.268 160.308 243.436 154.186 297.472 148.681C331.575 145.207 350.695 143.215 384.726 139.14C423.946 134.444 445.729 130.275 484.992 125.929C519 122.165 538.105 120.256 572.247 117.856C599.415 115.945 614.668 114.95 641.897 114.186C672.97 113.314 690.428 113.23 721.498 114.186C756.533 115.264 776.204 116.398 811.049 120.057C843.45 123.46 861.512 126.457 893.597 131.782L893.711 131.801C945.816 140.447 974.028 150.255 1026.12 158.956C1067.77 165.912 1091.15 170.248 1133.28 173.635C1170.83 176.654 1192.04 176.456 1229.72 176.571C1271.58 176.698 1295.09 176.111 1336.87 173.635C1386.95 170.668 1414.87 166.813 1464.69 161.158C1509.61 156.06 1534.63 151.919 1579.5 146.479C1619.23 141.664 1641.44 138.364 1681.3 134.736C1719.18 131.289 1740.45 128.704 1778.5 128.131C1813.19 127.608 1833.16 125.07 1867.29 131.067C1886.47 134.438 1920.5 146.479 1920.5 146.479V343.438L0.5 344Z" fill="#084734" stroke="#084734"/>
</svg>
