<svg width="95" height="107" viewBox="0 0 95 107" fill="none" xmlns="http://www.w3.org/2000/svg">
<path d="M20.0078 82C17.8492 80.4528 16.0078 77.5 16.0078 76.5C16.0078 75.5 23.6893 77.2822 28.5078 76.5C31.4999 76.0143 33.1421 75.4881 36.0078 74.5C39.2317 73.3884 41.0794 72.7473 44.0078 71C46.9656 69.2352 48.4272 67.8846 50.937 65.5654L51.0078 65.5C53.545 63.1556 54.9034 61.7396 57.0078 59C59.2521 56.0783 60.4171 54.3231 62.0078 51C63.5277 47.8249 64.0491 45.8871 65.0078 42.5C66.0404 38.852 66.5136 36.759 67.0078 33C67.5429 28.9299 68.5078 23.5 67.5078 22.5C66.5078 21.5 58.0078 22.5 57.5078 22.5C57.0078 22.5 55.422 22.6904 55.0078 22C54.5936 21.3096 56.0078 20 56.0078 20C56.0078 20 66.2549 8.27766 74.0078 2.5001C75.3547 1.49641 77.0078 0.5 77.5078 0.5C78.0078 0.5 78.9228 2.02333 79.5078 3.0001C85.4443 12.9118 93.5078 27.5 94.0078 28.5C94.5078 29.5 94.7763 30.3669 94.0078 31C93.0911 31.7552 92.0078 31 90.5078 30.5C89.0078 30 83.5078 26.5 82.5078 27C81.5078 27.5 81.5689 32.2051 81.0078 35.5L80.9664 35.7433C80.2845 39.7492 79.8837 42.1036 78.5078 46C77.141 49.8709 76.4592 51.8883 74.5078 55.5C72.5498 59.1239 71.4969 61.218 69.0078 64.5C66.4201 67.9121 64.2342 69.684 61.0078 72.5C58.2714 74.8883 56.6108 76.1123 53.5078 78C50.5237 79.8154 48.7973 80.8252 45.5078 82C42.1171 83.211 40.0078 84 36.5078 84.5C32.8351 85.0247 30.6718 85.0826 27.0078 84.5C24.2 84.0536 22.3186 83.6563 20.0078 82Z" fill="#F6C132" stroke="#F5BA1C"/>
<path d="M40.0078 29C41.4185 24.9004 46.0086 19.9996 46.0086 19.9996C46.0086 19.9996 38.9854 19.0926 34.5086 19.4996C31.343 19.7873 29.5223 19.9892 26.5086 20.9996C22.9474 22.1934 21.1497 22.942 18.0078 25C15.0996 26.9049 13.3938 28.4703 11.0086 30.9996C9.49534 32.6042 8.78158 33.6444 7.54359 35.4485L7.50857 35.4996C6.22015 37.3771 5.51394 38.4564 4.50857 40.4996C2.87285 43.8238 2.29509 45.8792 1.50857 49.4996C0.675368 53.3348 0.54577 55.575 0.508567 59.4996C0.478895 62.6297 0.500253 64.4108 1.00857 67.4996C1.5008 70.4906 2.01586 72.1354 3.00857 74.9996C3.83986 77.398 4.40379 78.7142 5.50857 80.9996C6.87888 83.8342 7.60602 85.4909 9.50857 87.9996C11.5109 90.6399 12.957 92.3849 15.5078 94.5C17.8844 96.4707 18.8506 97.428 21.5078 99C24.1383 100.556 26.1607 101.389 29.0078 102.5C32.5814 103.895 34.719 104.399 38.5078 105C42.7548 105.674 45.2246 105.882 49.5078 105.5C53.2841 105.163 55.4068 104.686 59.0078 103.5C61.8327 102.57 63.3609 101.856 66.0078 100.5C69.2866 98.8199 71.1184 97.7857 74.0078 95.5C77.0398 93.1015 78.6427 91.5581 81.0078 88.5C83.3639 85.4536 84.8376 83.4701 86.5078 80C87.8759 77.1575 88.5494 75.5054 89.5078 72.5C90.5439 69.2511 90.6731 66.8931 91.0086 63.4996C91.2583 60.9735 91.1828 59.532 91.0086 56.9996C90.7641 53.4448 90.4751 51.4292 89.5086 47.9996C88.4167 44.1251 86.5078 39.5 85.5086 38.4996C84.5093 37.4991 83.5757 46.9751 83.0078 52.5C82.5881 56.5835 81.9512 59.6196 81.5078 63.4996C81.222 66 80.7133 68.6069 79.5078 71.9996C78.1041 75.95 77.3945 78.0532 75.0078 81.5C73.4279 83.7816 72.4524 84.52 70.5078 86.5C68.3706 88.6761 66.5766 89.8555 64.0078 91.5C61.2857 93.2427 59.5682 93.9598 56.5078 94.9996C52.3737 96.4041 49.8678 96.7676 45.5078 97C40.8119 97.2503 38.5868 97.0708 34.0078 96C30.5802 95.1984 28.6563 94.5743 25.5078 93C22.3593 91.4257 21.2145 90.7511 18.5086 88.4996C16.1736 86.5567 15.2346 85.499 13.5078 83C11.467 80.0467 10.4919 77.9521 9.50857 74.4996C8.53257 71.0726 8.12703 69.0608 8.00857 65.4996C7.88455 61.7711 8.12568 59.6241 9.00857 55.9996C9.79825 52.7577 10.4893 50.9703 12.0086 47.9996C13.7348 44.624 15.0563 42.891 17.5086 39.9996C20.2785 36.7336 21.9857 34.9345 25.5086 32.4996C28.2392 30.6122 33.0086 28.4996 33.0086 28.4996C33.0086 28.4996 28.2838 33.2381 25.5086 36.4996C23.2556 39.1473 21.9135 40.5914 20.0086 43.4996C17.9505 46.6415 16.8784 48.5023 15.5086 51.9996C14.1094 55.5716 13.4504 57.6888 13.0086 61.4996C12.6488 64.603 13.0086 69.4996 13.0086 69.4996C13.0086 69.4996 22.2374 67.4261 27.0086 63.9996C30.1487 61.7444 31.8214 60.1874 34.0086 56.9996C36.1845 53.828 37.0734 51.7304 38.0086 47.9996C39.1015 43.6392 38.0722 40.9736 38.5086 36.4996C38.7954 33.5587 39.0464 31.7941 40.0078 29Z" fill="url(#paint0_linear_496_513)" stroke="url(#paint1_linear_496_513)"/>
<defs>
<linearGradient id="paint0_linear_496_513" x1="91.1688" y1="90.0288" x2="0.5" y2="34.5554" gradientUnits="userSpaceOnUse">
<stop offset="0.269231" stop-color="#97CA0D"/>
<stop offset="0.711538" stop-color="#29712D"/>
</linearGradient>
<linearGradient id="paint1_linear_496_513" x1="2.39835" y1="19.3945" x2="89.2704" y2="105.19" gradientUnits="userSpaceOnUse">
<stop stop-color="#2C712D"/>
<stop offset="1" stop-color="#85B607"/>
</linearGradient>
</defs>
</svg>
